<svg xmlns="http://www.w3.org/2000/svg" viewBox="0 0 600 600" width="600" height="600" role="img" aria-label="Anggrek Bulan Artificial">
<title>Anggrek Bulan Artificial</title>
<defs><linearGradient id="g13" x1="0" y1="0" x2="1" y2="1"><stop offset="0" stop-color="#FFF4F8"/><stop offset="1" stop-color="#F6C6D8"/></linearGradient></defs>
<rect x="0" y="0" width="600" height="600" fill="url(#g13)"/>
<circle cx="500" cy="90" r="120" fill="#fff" opacity=".35"/><circle cx="70" cy="520" r="90" fill="#fff" opacity=".25"/>
<ellipse cx="255" cy="405" rx="25.2" ry="90" fill="#4F8060" transform="rotate(-80 255 405)"/><ellipse cx="345" cy="405" rx="25.2" ry="90" fill="#4F8060" transform="rotate(80 345 405)"/><ellipse cx="300" cy="395" rx="22.4" ry="80" fill="#4F8060" transform="rotate(-35 300 395)"/><ellipse cx="300" cy="395" rx="22.4" ry="80" fill="#4F8060" transform="rotate(35 300 395)"/>
<path d="M300 400 Q250 250 235 150 Q320 80 440 220" fill="none" stroke="#6D8A5E" stroke-width="8" stroke-linecap="round"/>
<path d="M300 400 Q300 250 320 130" fill="none" stroke="#6D8A5E" stroke-width="7" stroke-linecap="round"/>
<g transform="rotate(-20 170 190)"><ellipse cx="170" cy="163.3" rx="20.4" ry="29.2" fill="#FBD0E0" stroke="#C95C8A" stroke-width="1.5" transform="rotate(0 170 190)"/><ellipse cx="170" cy="163.3" rx="20.4" ry="29.2" fill="#F29DBA" stroke="#C95C8A" stroke-width="1.5" transform="rotate(72 170 190)"/><ellipse cx="170" cy="163.3" rx="20.4" ry="29.2" fill="#FBD0E0" stroke="#C95C8A" stroke-width="1.5" transform="rotate(144 170 190)"/><ellipse cx="170" cy="163.3" rx="20.4" ry="29.2" fill="#F29DBA" stroke="#C95C8A" stroke-width="1.5" transform="rotate(216 170 190)"/><ellipse cx="170" cy="163.3" rx="20.4" ry="29.2" fill="#FBD0E0" stroke="#C95C8A" stroke-width="1.5" transform="rotate(288 170 190)"/><circle cx="170" cy="190" r="12.2" fill="#F5C842" stroke="#C95C8A" stroke-width="1.5"/></g><g transform="rotate(0 235 140)"><ellipse cx="235" cy="110.3" rx="22.7" ry="32.4" fill="#FBD0E0" stroke="#C95C8A" stroke-width="1.5" transform="rotate(0 235 140)"/><ellipse cx="235" cy="110.3" rx="22.7" ry="32.4" fill="#F29DBA" stroke="#C95C8A" stroke-width="1.5" transform="rotate(72 235 140)"/><ellipse cx="235" cy="110.3" rx="22.7" ry="32.4" fill="#FBD0E0" stroke="#C95C8A" stroke-width="1.5" transform="rotate(144 235 140)"/><ellipse cx="235" cy="110.3" rx="22.7" ry="32.4" fill="#F29DBA" stroke="#C95C8A" stroke-width="1.5" transform="rotate(216 235 140)"/><ellipse cx="235" cy="110.3" rx="22.7" ry="32.4" fill="#FBD0E0" stroke="#C95C8A" stroke-width="1.5" transform="rotate(288 235 140)"/><circle cx="235" cy="140" r="13.5" fill="#F5C842" stroke="#C95C8A" stroke-width="1.5"/></g><g transform="rotate(10 320 120)"><ellipse cx="320" cy="88.8" rx="23.8" ry="34" fill="#FBD0E0" stroke="#C95C8A" stroke-width="1.5" transform="rotate(0 320 120)"/><ellipse cx="320" cy="88.8" rx="23.8" ry="34" fill="#F29DBA" stroke="#C95C8A" stroke-width="1.5" transform="rotate(72 320 120)"/><ellipse cx="320" cy="88.8" rx="23.8" ry="34" fill="#FBD0E0" stroke="#C95C8A" stroke-width="1.5" transform="rotate(144 320 120)"/><ellipse cx="320" cy="88.8" rx="23.8" ry="34" fill="#F29DBA" stroke="#C95C8A" stroke-width="1.5" transform="rotate(216 320 120)"/><ellipse cx="320" cy="88.8" rx="23.8" ry="34" fill="#FBD0E0" stroke="#C95C8A" stroke-width="1.5" transform="rotate(288 320 120)"/><circle cx="320" cy="120" r="14.2" fill="#F5C842" stroke="#C95C8A" stroke-width="1.5"/></g><g transform="rotate(20 395 160)"><ellipse cx="395" cy="131.8" rx="21.5" ry="30.8" fill="#FBD0E0" stroke="#C95C8A" stroke-width="1.5" transform="rotate(0 395 160)"/><ellipse cx="395" cy="131.8" rx="21.5" ry="30.8" fill="#F29DBA" stroke="#C95C8A" stroke-width="1.5" transform="rotate(72 395 160)"/><ellipse cx="395" cy="131.8" rx="21.5" ry="30.8" fill="#FBD0E0" stroke="#C95C8A" stroke-width="1.5" transform="rotate(144 395 160)"/><ellipse cx="395" cy="131.8" rx="21.5" ry="30.8" fill="#F29DBA" stroke="#C95C8A" stroke-width="1.5" transform="rotate(216 395 160)"/><ellipse cx="395" cy="131.8" rx="21.5" ry="30.8" fill="#FBD0E0" stroke="#C95C8A" stroke-width="1.5" transform="rotate(288 395 160)"/><circle cx="395" cy="160" r="12.8" fill="#F5C842" stroke="#C95C8A" stroke-width="1.5"/></g><g transform="rotate(30 440 235)"><ellipse cx="440" cy="211.2" rx="18.1" ry="25.9" fill="#FBD0E0" stroke="#C95C8A" stroke-width="1.5" transform="rotate(0 440 235)"/><ellipse cx="440" cy="211.2" rx="18.1" ry="25.9" fill="#F29DBA" stroke="#C95C8A" stroke-width="1.5" transform="rotate(72 440 235)"/><ellipse cx="440" cy="211.2" rx="18.1" ry="25.9" fill="#FBD0E0" stroke="#C95C8A" stroke-width="1.5" transform="rotate(144 440 235)"/><ellipse cx="440" cy="211.2" rx="18.1" ry="25.9" fill="#F29DBA" stroke="#C95C8A" stroke-width="1.5" transform="rotate(216 440 235)"/><ellipse cx="440" cy="211.2" rx="18.1" ry="25.9" fill="#FBD0E0" stroke="#C95C8A" stroke-width="1.5" transform="rotate(288 440 235)"/><circle cx="440" cy="235" r="10.8" fill="#F5C842" stroke="#C95C8A" stroke-width="1.5"/></g>
<path d="M225 395 L375 395 L355 470 L245 470 Z" fill="#fff" stroke="#C95C8A" stroke-width="3"/>
<rect x="220" y="385" width="160" height="18" rx="6" fill="#F3E6D8" stroke="#C95C8A" stroke-width="3"/>
<rect x="40" y="514" width="520" height="54" rx="27" fill="#fff" opacity=".88"/><text x="300" y="550" text-anchor="middle" font-family="Poppins,Arial,sans-serif" font-size="24" font-weight="600" fill="#2D1F24">Anggrek Bulan Artificial</text>
</svg>
